<?xml version="1.0" encoding="UTF-8" standalone="no"?>
<!-- Created with Inkscape (http://www.inkscape.org/) -->

<svg
   width="104.51041mm"
   height="17.727083mm"
   viewBox="0 0 104.51041 17.727083"
   version="1.1"
   id="svg1"
   xml:space="preserve"
   inkscape:export-filename="DheeCodes-dark.svg"
   inkscape:export-xdpi="96"
   inkscape:export-ydpi="96"
   xmlns:inkscape="http://www.inkscape.org/namespaces/inkscape"
   xmlns:sodipodi="http://sodipodi.sourceforge.net/DTD/sodipodi-0.dtd"
   xmlns="http://www.w3.org/2000/svg"
   xmlns:svg="http://www.w3.org/2000/svg"><sodipodi:namedview
     id="namedview1"
     pagecolor="#ffffff"
     bordercolor="#000000"
     borderopacity="0.25"
     inkscape:showpageshadow="2"
     inkscape:pageopacity="0.0"
     inkscape:pagecheckerboard="0"
     inkscape:deskcolor="#d1d1d1"
     inkscape:document-units="mm"><inkscape:page
       x="0"
       y="0"
       width="104.51041"
       height="17.727083"
       id="page2"
       margin="0"
       bleed="0" /></sodipodi:namedview><defs
     id="defs1" /><g
     inkscape:label="Layer 1"
     inkscape:groupmode="layer"
     id="layer1"
     transform="translate(-27.883852,-86.46405)"><path
       style="fill:#818cf8;fill-opacity:1"
       d="m 35.511012,99.08945 v -0.66146 h 4.365625 4.365624 v 0.66146 0.66146 h -4.365624 -4.365625 z m -5.304014,-0.0149 c -0.292734,-0.35272 -0.06122,-0.69414 1.614834,-2.38146 l 1.956559,-1.9697 -2.054198,-2.06632 c -1.964657,-1.97625 -2.033025,-2.08548 -1.568461,-2.50591 0.460774,-0.41699 0.61399,-0.31079 2.981283,2.06638 l 2.495547,2.50597 -2.370363,2.3814 c -1.303699,1.30976 -2.447563,2.38139 -2.541919,2.38139 -0.09436,0 -0.325333,-0.18529 -0.513282,-0.41175 z m 17.474846,-3.95387 v -4.10104 h 1.322917 1.322916 v 4.10104 4.10104 h -1.322916 -1.322917 z m 3.439583,3.43958 c 0,-0.57956 0.114653,-0.66146 0.926042,-0.66146 h 0.926041 v -2.77812 -2.77813 h -0.926041 c -0.811389,0 -0.926042,-0.0819 -0.926042,-0.66146 0,-0.62957 0.07402,-0.66145 1.535598,-0.66145 1.389664,0 1.615962,0.0829 2.381249,0.87249 0.823966,0.85012 0.845653,0.9336 0.845653,3.25539 0,2.3481 -0.01274,2.39524 -0.872492,3.22855 -0.774092,0.75028 -1.04265,0.84565 -2.38125,0.84565 -1.432953,0 -1.508758,-0.0332 -1.508758,-0.66146 z m 6.085416,-3.43958 v -4.10104 h 1.322917 1.322916 v 4.10104 4.10104 H 58.52976 57.206843 Z m 5.238146,2.44739 -0.07877,-1.65364 -0.992188,-0.0821 c -0.845509,-0.07 -0.992187,-0.17518 -0.992187,-0.71163 0,-0.53646 0.146678,-0.64166 0.992187,-0.71164 l 0.992188,-0.0821 0.07877,-1.65364 0.07877,-1.65365 h 1.310291 1.310292 v 4.10105 4.10104 H 63.834051 62.52376 Z m 4.286853,-2.44739 v -4.10104 h 1.322917 1.322917 v 1.71979 1.71979 h 1.322916 c 1.234722,0 1.322917,0.0441 1.322917,0.66146 0,0.61736 -0.0882,0.66146 -1.322917,0.66146 h -1.322916 v 1.71979 1.71979 h -1.322917 -1.322917 z m 3.175,3.43958 c 0,-0.53135 0.131738,-0.66146 0.669762,-0.66146 0.368369,0 0.738295,-0.17859 0.822058,-0.39687 0.106661,-0.27796 0.540216,-0.39688 1.446904,-0.39688 h 1.294609 v 1.05834 1.05833 h -2.116666 c -2.081389,0 -2.116667,-0.011 -2.116667,-0.66146 z m 5.55625,-3.43958 v -4.10104 h 1.310291 1.310291 l 0.07877,1.65364 0.07877,1.65365 1.256771,0.0806 c 1.13467,0.0728 1.256771,0.1435 1.256771,0.7276 0,0.59997 -0.0961,0.64696 -1.322917,0.64696 h -1.322916 v 1.7198 1.71979 H 76.786006 75.46309 Z m 3.174999,3.43958 c 0,-0.55856 0.123473,-0.66146 0.79375,-0.66146 0.529167,0 0.79375,-0.13229 0.79375,-0.39687 0,-0.29986 0.32338,-0.39688 1.322917,-0.39688 h 1.322916 v 1.05834 1.05833 h -2.116666 c -2.081389,0 -2.116667,-0.011 -2.116667,-0.66146 z m 6.401902,-0.21103 c -0.823966,-0.85012 -0.845652,-0.9336 -0.845652,-3.25539 0,-2.3481 0.01274,-2.39525 0.872492,-3.22855 0.47987,-0.46511 1.075183,-0.84565 1.322916,-0.84565 0.404804,0 0.450425,0.41536 0.450425,4.10104 0,3.77599 -0.03783,4.10104 -0.477264,4.10104 -0.262496,0 -0.857808,-0.39262 -1.322917,-0.87249 z m 2.593931,0.22779 c 0,-0.53395 0.147709,-0.65893 0.859895,-0.7276 0.659063,-0.0635 0.879643,-0.22195 0.944444,-0.67822 0.07462,-0.52544 0.237673,-0.59531 1.389062,-0.59531 1.116819,0 1.304515,0.0742 1.304515,0.51575 0,0.28367 -0.386953,0.87843 -0.859896,1.32169 -0.732076,0.68614 -1.066373,0.80612 -2.248958,0.80717 -1.295981,0.001 -1.389062,-0.042 -1.389062,-0.64348 z m 6.416145,-0.16369 c -0.853308,-0.79976 -0.859896,-0.8252 -0.859896,-3.32098 0,-2.49565 0.0066,-2.52105 0.852715,-3.29388 0.628547,-0.57409 1.115438,-0.77883 1.852084,-0.77883 0.876562,0 0.999368,0.0775 0.999368,0.6306 0,0.40808 -0.186724,0.67942 -0.529167,0.76898 -0.483227,0.12636 -0.529167,0.36089 -0.529167,2.70146 0,2.34056 0.04594,2.57509 0.529167,2.70146 0.342443,0.0896 0.529167,0.3609 0.529167,0.76898 0,0.55252 -0.122849,0.63045 -0.992188,0.62938 -0.740142,-9.2e-4 -1.210627,-0.20596 -1.852083,-0.80717 z m 3.638023,0.17779 c 0,-0.40808 0.18672,-0.67943 0.52916,-0.76898 0.48323,-0.12637 0.52917,-0.3609 0.52917,-2.70146 0,-2.34057 -0.0459,-2.5751 -0.52917,-2.70146 -0.34244,-0.0895 -0.52916,-0.3609 -0.52916,-0.76898 0,-0.55311 0.1228,-0.6306 0.99936,-0.6306 0.73665,0 1.22354,0.20474 1.852088,0.77883 0.84614,0.77283 0.85271,0.79823 0.85271,3.29388 0,2.49578 -0.007,2.52122 -0.85989,3.32098 -0.641458,0.60121 -1.111938,0.80625 -1.852088,0.80717 -0.86933,0.001 -0.99218,-0.0768 -0.99218,-0.62938 z m 5.027078,-3.47044 v -4.10104 h 1.32292 1.32291 v 4.10104 4.10104 h -1.32291 -1.32292 z m 3.175,3.43958 c 0,-0.59531 0.10583,-0.66146 1.05833,-0.66146 h 1.05834 v -2.77812 -2.77813 h -1.05834 c -0.9525,0 -1.05833,-0.0661 -1.05833,-0.66146 0,-0.63437 0.0671,-0.66145 1.63917,-0.66145 1.41838,0 1.73912,0.0958 2.38125,0.71096 0.71626,0.68622 0.74208,0.80308 0.74208,3.35896 0,2.5132 -0.0362,2.68577 -0.71096,3.39008 -0.63194,0.6596 -0.89659,0.74208 -2.38125,0.74208 -1.60525,0 -1.67029,-0.0258 -1.67029,-0.66146 z m 6.08542,-3.43958 v -4.10104 h 1.31029 1.31029 l 0.0788,1.65364 0.0788,1.65365 1.25677,0.0806 c 1.13467,0.0728 1.25677,0.1435 1.25677,0.7276 0,0.59997 -0.0961,0.64696 -1.32291,0.64696 h -1.32292 v 1.7198 1.71979 h -1.32292 -1.32291 z m 3.175,3.43958 c 0,-0.55856 0.12347,-0.66146 0.79375,-0.66146 0.52916,0 0.79375,-0.13229 0.79375,-0.39687 0,-0.29986 0.32338,-0.39688 1.32291,-0.39688 h 1.32292 v 1.05834 1.05833 h -2.11667 c -2.08139,0 -2.11666,-0.011 -2.11666,-0.66146 z m 6.24122,-0.15259 c -1.04437,-1.24117 -0.91166,-1.5672 0.63794,-1.5672 1.14653,0 1.32292,0.0706 1.32292,0.52917 0,0.44097 0.17639,0.52916 1.05833,0.52916 0.9525,0 1.05834,0.0661 1.05834,0.66146 0,0.63677 -0.0633,0.66146 -1.69628,0.66146 -1.56933,0 -1.74753,-0.0609 -2.38125,-0.81405 z m 4.60669,-0.77345 v -1.5875 h -1.80018 c -1.68895,0 -1.85243,-0.0539 -2.64583,-0.87249 -1.09162,-1.12626 -1.10622,-2.13132 -0.0479,-3.2947 0.43025,-0.47294 1.02207,-0.85989 1.31516,-0.85989 0.46955,0 0.5329,0.17299 0.5329,1.4552 v 1.45521 h 1.90375 c 1.70552,0 1.98102,0.074 2.64583,0.71096 1.03986,0.99625 1.05425,2.77072 0.0311,3.83863 -0.39103,0.40814 -0.98634,0.74208 -1.32292,0.74208 -0.57156,0 -0.61196,-0.1048 -0.61196,-1.5875 z M 89.436625,93.33474 c -0.0729,-0.7561 -0.186699,-0.8699 -0.942806,-0.9428 -0.712186,-0.0687 -0.859895,-0.19366 -0.859895,-0.72761 0,-0.60395 0.09068,-0.64469 1.434908,-0.64469 1.865836,0 3.063008,0.88819 3.063008,2.27248 v 0.90252 h -1.306153 c -1.280212,0 -1.307799,-0.0171 -1.389062,-0.8599 z M 71.494342,92.73945 c 0,-0.26458 -0.264583,-0.39688 -0.79375,-0.39688 -0.670278,0 -0.79375,-0.10289 -0.79375,-0.66145 0,-0.65044 0.03528,-0.66146 2.116667,-0.66146 h 2.116666 v 1.05833 1.05833 h -1.322916 c -0.999537,0 -1.322917,-0.097 -1.322917,-0.39687 z m 8.995832,0 c 0,-0.27718 -0.279282,-0.39688 -0.926041,-0.39688 -0.811389,0 -0.926042,-0.0819 -0.926042,-0.66145 0,-0.65044 0.03528,-0.66146 2.116667,-0.66146 h 2.116666 v 1.05833 1.05833 h -1.190625 c -0.881944,0 -1.190625,-0.10289 -1.190625,-0.39687 z m 36.512496,0 c 0,-0.27718 -0.27928,-0.39688 -0.92604,-0.39688 -0.81139,0 -0.92604,-0.0819 -0.92604,-0.66145 0,-0.65044 0.0353,-0.66146 2.11666,-0.66146 h 2.11667 v 1.05833 1.05833 h -1.19063 c -0.88194,0 -1.19062,-0.10289 -1.19062,-0.39687 z m 8.99583,0 c 0,-0.28663 -0.29398,-0.39688 -1.05833,-0.39688 -0.9525,0 -1.05833,-0.0661 -1.05833,-0.66145 0,-0.63585 0.0648,-0.66146 1.67367,-0.66146 1.40737,0 1.7652,0.0974 2.24895,0.61236 0.96085,1.02277 0.76388,1.5043 -0.61533,1.5043 -0.88195,0 -1.19063,-0.10289 -1.19063,-0.39687 z"
       id="path1" /></g></svg>
