<?xml version="1.0" encoding="utf-8" ?><svg xmlns="http://www.w3.org/2000/svg" xmlns:xlink="http://www.w3.org/1999/xlink" width="640" height="155" viewBox="0 0 640 155"><path fill="#40BFC9" d="M74.2766 6.02586C97.6426 4.97766 91.0736 7.26099 96.0051 25.4839L103.53 29.2004C105.606 28.0174 107.528 26.7373 109.415 25.3735C112.093 23.4922 116.021 18.6832 119.779 20.7816C122.932 22.5424 130.488 29.9327 131.84 33.0792C133.826 37.6991 126.974 44.7496 124.96 49.1431C124.798 51.2782 127.63 55.7405 128.669 58.4213C135.872 59.2558 147.163 55.7162 147.245 66.4656C147.268 69.4415 148.484 77.379 147.744 79.5579C146.822 82.2727 133.283 86.3149 130.879 87.2643C130.612 88.1018 129.178 94.8541 129.409 95.3372C131.562 99.9136 137.964 102.721 139.956 107.463C141.491 111.118 136.804 113.863 133.833 111.781C129.059 108.437 123.036 103.05 120.269 97.8912C119.388 96.2493 121.2 90.733 121.766 88.9626C123.775 76.8855 128.303 78.573 139.056 75.3216C138.484 72.5986 138.281 70.2026 138.463 67.4368C133.986 67.3336 123.93 68.576 121.72 63.9833C119.69 59.7672 116.552 54.0875 115.283 49.6794C116.305 44.0554 120.017 40.6043 122.754 35.8404C120.958 33.5401 119.834 32.4722 117.679 30.4821C116.358 31.6689 105.531 38.9907 104.113 39.6451C101.276 38.7719 89.8941 33.1225 87.5623 31.4436C86.1034 27.7334 85.1554 19.5899 85.2396 15.4722L77.6963 15.4436C76.9543 18.7487 75.0009 31.1368 71.3809 31.7544C66.6385 32.5635 61.8516 33.8807 57.2861 35.1769C54.7109 35.9081 46.2013 26.7993 44.04 24.8114C42.7786 26.0939 40.0069 28.2518 38.4402 29.6751C39.6494 34.9783 42.6648 38.7263 43.1545 42.6619C43.5362 45.729 35.6533 56.8554 33.4329 59.1239C29.1255 60.0569 22.3106 59.2679 17.7991 58.8511C17.227 61.5665 16.8803 63.1723 16.731 65.9209C19.8795 67.6753 23.3727 68.8005 26.6429 70.306C31.3474 72.4718 31.202 75.1919 31.1812 79.6094C31.0653 84.2639 33.0169 91.3168 28.7472 94.3011C25.642 96.4715 22.7276 98.7147 19.7843 101.102C20.6534 103.597 21.2879 105.145 22.4214 107.531C26.5798 107.091 33.8425 104.292 37.4493 104.475C39.2141 104.565 49.1473 114.785 50.5019 116.424C51.7725 117.961 49.0658 129.826 48.6285 132.619C50.8133 133.367 53.0498 134.061 55.0746 135.166C57.0711 131.979 62.4704 122.143 66.9929 122.67C84.5236 124.713 83.295 122.397 90.6232 138.461C92.6213 137.762 94.9483 137.136 97.003 136.538C96.841 134.386 95.6994 121.469 96.4597 120.657C106.702 109.72 107.009 136.961 105.938 141.161C105.115 144.391 89.3269 148.226 86.2752 147.23C83.692 146.388 78.4999 135.141 77.4835 132.218L68.42 131.893C64.8546 135.866 62.9566 141.438 59.1895 145.217C58.4895 145.919 57.6042 146.433 56.5834 146.404C55.244 146.367 41.5363 139.294 40.3531 138.08C36.4023 134.026 41.0957 126.044 41.0923 121.118C41.0904 118.227 37.4367 115.451 35.516 113.514C32.5093 114.304 23.5557 117.151 21.0511 116.973C14.8371 116.531 10.143 103.078 10.6082 97.4662C13.5574 93.8552 17.3969 92.0548 20.537 89.0535C22.9272 86.7688 22.1046 81.5545 21.8773 78.2834C16.9734 75.9937 11.4891 73.875 7.03412 70.9048C7.01985 70.4001 6.97548 69.8484 7.01118 69.3506C8.63346 46.7306 11.9161 49.7711 29.3268 50.0126C31.1628 47.7181 32.8391 45.2344 34.1299 42.5913C32.5194 38.2714 28.7409 31.4183 28.4557 27.2472C28.1714 23.0872 41.0161 15.0823 44.5065 15.657C48.1705 16.2602 55.6052 23.0572 57.8978 25.9017C61.2056 24.2091 62.6568 23.707 66.3052 23.2466C67.5859 18.3454 69.1107 7.63454 74.2766 6.02586Z"/><path fill="#F8F7F8" d="M275.2 71.8641C276.267 71.9355 277.664 72.1557 278.568 71.6749C279.886 67.9525 276.73 52.9588 280.607 50.6768C282.194 49.7424 287.898 50.4418 290.034 50.8613C290.251 56.4266 290.731 102.038 289.337 104.63C287.876 105.621 280.313 106.043 279.655 104.058C277.753 98.3199 278.859 90 278.734 83.8559C271.06 83.9953 263.541 84.0885 255.86 83.7298C255.916 90.174 256.217 96.8242 255.543 103.213C255.208 106.395 246.711 105.557 245.13 104.502C243.472 101.749 244.095 78.8866 244.609 74.3317C244.716 73.3822 245.41 72.9105 246.146 72.471C248.079 72.0121 252.514 72.0592 254.629 71.9982C261.4 71.8029 268.455 72.1453 275.2 71.8641Z"/><path fill="#F8F7F8" d="M182.141 50.732C183.917 50.5428 188.354 50.4778 190.158 50.5394C201.263 50.8676 212.912 48.85 221.475 57.6027C232.009 68.3698 232.639 87.2285 221.849 98.0507C212.834 107.093 202.667 105.356 191.016 105.31C188.232 105.231 183.524 106.19 181.608 104.228C180.294 102.883 179.935 95.3638 182.058 94.7687C190.23 92.4788 199.99 94.9842 208.461 93.6294C213.251 92.1122 217.814 86.0559 218.041 81.4121C219.339 56.4913 201.939 62.5333 185.129 61.898C179.184 61.6733 180.024 52.3511 182.141 50.732Z"/><path fill="#F8F7F8" d="M422.947 50.1644C425.516 49.9308 429.477 49.8499 432.002 50.1808C432.793 50.9827 433.824 52.2231 434.484 53.1521C442.306 64.1747 450.735 74.8847 458.346 86.0423C457.816 82.3943 457.98 76.9471 457.963 73.1846C457.934 66.465 457.975 59.6465 458.114 52.9271L459.876 50.2408C462.497 50.1059 466.323 49.6764 468.581 50.7916C470.286 52.6472 469.852 67.1904 469.877 70.5077L469.85 91.5716C469.841 95.8717 470.522 101.684 468.222 105.259C465.491 105.346 461.12 105.437 458.511 105.068C457.279 103.753 456.387 102.365 455.346 100.906C444.766 86.0745 433.836 71.4892 423.179 56.7142C420.888 53.5381 420.831 53.3863 422.947 50.1644Z"/><path fill="#F8F7F8" d="M586.233 50.1606C588.89 49.951 591.482 49.982 594.127 50.2992C599.344 57.7844 604.92 65.1819 610.314 72.5479C613.677 77.1411 617.245 81.546 620.247 86.3846C619.741 77.5977 620.149 68.5275 619.943 59.7129C619.892 57.5466 619.693 52.2785 620.97 50.6838C623.201 49.5251 628.154 50.1185 630.63 50.5361C631.622 55.0027 631.234 67.8613 631.19 72.9792L631.272 92.0521C631.284 94.9078 631.502 101.546 630.872 104.091C629.433 105.858 621.877 105.842 619.96 104.702C607.883 88.8115 596.638 71.9833 584.455 56.1136C582.469 53.5272 582.642 50.9389 586.233 50.1606Z"/><path fill="#40BFC9" d="M73.8374 51.9766C92.1232 49.4637 106.822 65.9748 103.65 83.5381C102.468 90.0844 98.2623 97.9724 92.3278 89.8139C92.9827 83.8469 96.0658 82.2816 94.4508 74.9476C90.9285 58.9521 72.1226 54.9948 62.7028 68.3443C61.8551 69.5457 59.8789 73.551 60.1914 75.0766C60.1169 83.1473 60.1282 85.5887 65.5239 91.7239C71.8044 98.8651 81.4395 94.0417 86.3799 96.4458C86.8957 96.9388 87.3109 97.4138 87.3557 98.1471C87.5578 102.357 85.0581 104.414 81.0303 104.978C57.2516 108.306 42.2544 80.9103 56.0242 62.1327C60.0031 56.7067 66.9393 52.7561 73.8374 51.9766Z"/><path fill="#F8F7F8" d="M506.349 50.4237L510.043 50.533C510.404 53.5872 510.467 56.3772 510.346 59.443C507.58 62.4585 503.153 63.1069 500.15 66.146C496.979 69.1384 495.732 74.1053 495.681 78.088C495.546 88.6037 501.651 91.1369 509.249 95.7846C510.912 96.8015 510.331 102.935 510.255 105.361C507.774 105.432 506.382 105.481 503.94 105.153C484.082 100.366 478.329 73.2923 491.298 58.9866C494.583 55.3619 501.497 50.7576 506.349 50.4237Z"/><path fill="#F8F7F8" d="M523.07 72.9631C526.959 72.9688 530.908 72.9968 534.748 73.1711C539.402 73.5289 540.042 74.5203 540.099 78.7571C540.255 90.4106 532.474 100.796 521.701 104.825C519.519 105.641 516.271 106.599 514.545 104.422C514.344 102.769 513.96 100.34 514.053 98.7136C514.349 93.5454 519.248 94.0237 522.583 91.4389C525.363 89.284 526.203 87.7065 527.89 84.7587C524.069 85.2691 514.053 86.2467 510.93 83.7777C508.892 82.1666 509.004 76.0077 510.904 74.3434C513.274 72.2675 519.763 73.0137 523.07 72.9631Z"/><path fill="#F8F7F8" d="M371.151 50.1573C380.512 49.7791 397.102 49.9121 406.256 50.3628C406.719 53.0917 407.66 58.2867 405.762 60.5615C404.665 61.8766 402.236 61.8968 400.65 61.9692C396.506 62.22 367.605 62.6591 365.629 61.0836C364.496 59.5053 364.742 57.9734 364.667 56.1628C364.41 49.9348 365.802 50.2316 371.151 50.1573Z"/><path fill="#F8F7F8" d="M312.967 50.1581C318.602 50.0317 346.365 49.4792 349.383 51.4033C349.926 52.3279 350.043 53.8428 350.048 54.9395C350.073 61.3595 350.574 61.1054 343.999 61.9314C336.879 62.2988 329.203 61.9023 322.04 62.114C318.941 62.2056 311.084 62.6158 308.86 60.8453C307.9 59.3979 307.767 57.7478 307.793 56.0598C307.868 51.3128 308.331 50.178 312.967 50.1581Z"/><path fill="#F8F7F8" d="M313.742 93.9018L334.62 93.8565C337.623 93.8381 346.204 93.606 348.663 94.125C350.097 95.5236 349.78 99.2361 349.954 101.246C350.335 105.624 347.81 105.342 344.766 105.31C340.548 105.315 310.385 105.748 308.739 104.687C307.881 103.238 307.947 101.757 307.838 100.154C307.49 95.0081 308.573 94.0195 313.742 93.9018Z"/><path fill="#F8F7F8" d="M366.979 94.1706C372.041 93.6146 401.561 93.5008 404.996 94.5522C405.546 94.7205 405.86 94.8083 406.127 95.3549C406.825 96.7837 406.938 102.29 406.386 103.796C406.033 104.76 405.527 104.912 404.68 105.32L379.671 105.351C375.965 105.354 368.461 105.542 365.078 104.969C364.658 102.629 364.282 97.7903 365.133 95.5258C365.47 94.6295 366.168 94.5087 366.979 94.1706Z"/><path fill="#F8F7F8" d="M368.664 72.0141C373.259 71.7676 399.952 71.3995 402.673 72.616C403.628 74.0155 403.346 77.509 403.312 79.2069C403.262 81.6643 402.91 83.1473 400.394 83.7758C395.655 83.9681 368.576 84.9452 366.12 82.996C365.469 82.4793 365.223 81.3467 365.104 80.5653C364.825 78.7499 364.504 74.2603 365.599 72.7777C366.454 72.0749 367.555 72.1058 368.664 72.0141Z"/><path fill="#F8F7F8" d="M311.33 71.9797C312.156 71.9176 314.047 71.8208 314.833 71.8917C322.686 72.5989 339.318 70.3309 346.16 72.8889C346.485 75.0167 346.958 78.6606 346.447 80.7164C345.974 82.6193 344.934 83.0216 343.338 83.9516C337.896 83.9733 312.377 84.7209 309.488 83.1973C308.921 82.8979 308.603 81.8876 308.449 81.2989C308.011 79.6261 307.617 74.9573 308.546 73.4835C309.179 72.4803 310.259 72.2551 311.33 71.9797Z"/><path fill="#F8F7F8" d="M556.822 72.3222C559.084 72.2317 563.204 71.7282 564.802 73.601C565.41 76.1345 565.707 102.598 565.023 104.758C564.045 105.476 563.999 105.252 562.578 105.345C560.572 105.369 555.461 105.683 554.096 104.302C553.579 99.2873 553.131 77.2997 554.455 73.1842C555.336 72.4124 555.506 72.5905 556.822 72.3222Z"/><path fill="#F8F7F8" d="M517.055 50.4179C520.118 49.8082 527.674 53.9433 530.022 56.0251C532.98 58.6467 536.778 62.8142 537.584 66.797C537.901 68.363 536.11 69.8766 534.652 69.9747C526.014 70.3661 528.34 70.0125 522.544 64.7354C520.683 63.0404 516.467 62.3923 514.323 59.8925C513.934 56.325 512.856 51.5546 517.055 50.4179Z"/><path fill="#F8F7F8" d="M556.212 50.1165C559.245 50.0415 561.789 49.9793 564.835 50.1697C565.614 54.8596 565.348 64.2464 565.254 69.1508L561.938 69.7329C555.408 70.1494 553.986 70.6995 553.751 63.1189C553.634 59.3468 553.53 55.2633 554.573 51.5926C554.843 50.6417 555.408 50.4514 556.212 50.1165Z"/><path fill="#F8F7F8" d="M246.311 69.758L245.344 69.3055C243.726 67.4611 243.518 53.2605 245.207 51.1828C247.266 50.0484 253.012 50.6822 255.487 50.933C255.802 52.7733 255.906 54.7844 256.046 56.6553C255.932 67.344 258.448 70.4327 246.311 69.758Z"/><path fill="#F8F7F8" d="M586.705 85.7608C589.34 85.6953 591.419 85.8688 594.013 86.2423C594.639 89.2453 594.585 92.9394 594.688 96.0475C594.776 98.7282 594.926 102.298 593.454 104.63C592.985 105.372 592.421 105.261 591.641 105.328C588.665 105.314 586.444 105.289 583.459 104.979L583.446 104.866C583.072 101.571 582.061 89.5454 584.002 86.7083C584.556 85.8978 585.747 85.8574 586.705 85.7608Z"/><path fill="#F8F7F8" d="M425.147 85.7244C426.769 85.6636 430.04 85.7771 431.527 86.3204C433.516 88.2559 433.005 99.1398 432.73 102.155C432.532 104.33 431.505 105.117 429.453 105.341L428.117 105.356C424.951 105.377 421.468 105.932 421.309 101.928C421.131 97.4448 421.231 93.0066 421.283 88.5217C422.751 86.6554 422.903 86.2422 425.147 85.7244Z"/><path fill="#2B3449" fill-opacity="0.074509807" d="M256.046 56.6553C257.226 58.5273 257.629 70.2787 252.163 71.0575C255.666 71.8575 274.269 70.7327 275.2 71.8641C268.455 72.1453 261.4 71.8029 254.629 71.9982C252.514 72.0592 248.079 72.0121 246.146 72.471C246.877 71.7344 248.298 70.8921 249.351 71.1885L249.354 70.9891C248.425 70.7267 247.223 70.1581 246.311 69.758C258.448 70.4327 255.932 67.344 256.046 56.6553Z"/></svg>